<!DOCTYPE svg PUBLIC "-//W3C//DTD SVG 20010904//EN" "http://www.w3.org/TR/2001/REC-SVG-20010904/DTD/svg10.dtd">
<svg version="1.0" xmlns="http://www.w3.org/2000/svg" width="1600px" height="179px" viewBox="0 0 16000 1790" preserveAspectRatio="xMidYMid meet">
<g id="layer101" fill="#000000" stroke="none">
 <path d="M0 1740 l0 -50 245 0 245 0 -28 50 -27 50 -217 0 -218 0 0 -50z"/>
 <path d="M1120 1786 c0 -2 12 -24 26 -50 l26 -46 239 0 c131 0 239 2 239 4 0 2 -12 24 -26 50 l-26 46 -239 0 c-131 0 -239 -2 -239 -4z"/>
 <path d="M1725 1740 l25 -50 240 0 c132 0 240 2 240 4 0 2 -12 24 -26 50 l-26 46 -239 0 -239 0 25 -50z"/>
 <path d="M2870 1783 c0 -5 10 -27 22 -50 l23 -43 237 0 c131 0 238 2 238 5 0 2 -10 25 -22 50 l-22 45 -238 0 c-131 0 -238 -3 -238 -7z"/>
 <path d="M3450 1787 c0 -2 10 -24 23 -48 l24 -44 242 -3 242 -2 -27 50 -27 50 -239 0 c-131 0 -238 -2 -238 -3z"/>
 <path d="M4582 1751 c-7 -21 -12 -43 -12 -50 0 -8 84 -11 304 -11 l304 0 6 35 c4 19 11 35 15 35 5 0 16 -16 25 -35 l17 -35 239 0 c132 0 240 2 240 5 0 3 -10 25 -22 50 l-23 44 -541 1 -541 0 -11 -39z"/>
 <path d="M6331 1768 c-4 -13 -11 -35 -15 -50 l-6 -28 304 0 305 0 12 43 c6 23 13 45 16 50 2 4 -133 7 -302 7 l-305 0 -9 -22z"/>
 <path d="M7545 1740 l25 -50 240 0 c132 0 240 3 240 6 0 3 -12 25 -26 50 l-26 44 -239 0 -239 0 25 -50z"/>
 <path d="M8690 1785 c0 -2 10 -25 22 -50 l22 -45 238 0 c131 0 238 2 238 5 0 2 -10 25 -22 50 l-22 45 -238 0 c-131 0 -238 -2 -238 -5z"/>
 <path d="M9272 1782 c2 -4 12 -26 22 -50 l20 -42 823 0 c453 0 823 2 823 4 0 2 -12 24 -26 50 l-26 46 -820 0 c-451 0 -818 -3 -816 -8z"/>
 <path d="M11035 1740 l25 -50 240 0 c132 0 240 3 240 6 0 3 -12 25 -26 50 l-26 44 -239 0 -239 0 25 -50z"/>
 <path d="M12180 1785 c0 -2 10 -25 22 -50 l22 -45 238 0 c131 0 238 3 238 8 0 4 -10 26 -22 50 l-23 42 -237 0 c-131 0 -238 -2 -238 -5z"/>
 <path d="M13948 1740 l27 -50 237 0 c131 0 238 3 238 7 0 3 -11 26 -25 50 l-26 43 -239 0 -239 0 27 -50z"/>
 <path d="M30 1653 c0 -5 15 -35 33 -68 l32 -60 242 -3 242 -2 -37 70 -37 70 -237 0 c-131 0 -238 -3 -238 -7z"/>
 <path d="M1192 1653 c2 -5 18 -36 36 -70 l32 -63 240 0 240 0 -35 70 -35 70 -241 0 c-132 0 -239 -3 -237 -7z"/>
 <path d="M1772 1653 c2 -5 18 -36 36 -70 l32 -63 240 0 239 0 -12 28 c-7 15 -23 46 -35 70 l-22 42 -241 0 c-132 0 -239 -3 -237 -7z"/>
 <path d="M2940 1653 c0 -4 15 -35 33 -70 l32 -63 238 0 c130 0 237 2 237 5 0 2 -15 34 -32 70 l-33 65 -237 0 c-131 0 -238 -3 -238 -7z"/>
 <path d="M3520 1653 c0 -3 16 -35 35 -70 l36 -63 240 0 240 0 -37 70 -38 70 -238 0 c-131 0 -238 -3 -238 -7z"/>
 <path d="M4555 1648 c-10 -26 -35 -113 -35 -120 0 -5 137 -8 305 -8 l304 0 11 43 c6 23 15 54 20 70 l9 27 -305 0 c-235 0 -306 -3 -309 -12z"/>
 <path d="M5296 1590 l38 -70 238 0 c131 0 238 3 238 7 0 3 -16 35 -35 70 l-36 63 -240 0 -240 0 37 -70z"/>
 <path d="M6300 1657 c0 -1 -9 -32 -19 -70 l-20 -67 307 2 306 3 12 40 c6 22 14 52 18 68 l6 27 -305 0 c-168 0 -305 -1 -305 -3z"/>
 <path d="M7626 1590 l36 -70 239 0 c131 0 239 2 239 4 0 3 -15 33 -34 68 l-35 63 -241 3 -241 2 37 -70z"/>
 <path d="M8788 1590 l37 -70 242 0 242 0 -37 70 -37 70 -242 0 -241 0 36 -70z"/>
 <path d="M9340 1653 c0 -5 15 -35 34 -68 l33 -60 821 -3 c452 -1 822 0 822 2 0 2 -15 33 -34 68 l-35 63 -820 3 c-452 1 -821 -1 -821 -5z"/>
 <path d="M11082 1652 c2 -4 18 -35 37 -70 l34 -62 238 0 238 0 -12 28 c-7 15 -23 46 -35 70 l-22 42 -241 0 c-132 0 -239 -3 -237 -8z"/>
 <path d="M12250 1651 c0 -5 15 -35 33 -67 l33 -59 241 -3 240 -2 -36 70 -36 70 -237 0 c-133 0 -238 -4 -238 -9z"/>
 <path d="M14026 1590 l37 -70 239 0 c131 0 238 3 238 8 0 4 -16 34 -34 67 l-34 60 -241 3 -241 2 36 -70z"/>
 <path d="M120 1485 c0 -3 14 -32 30 -65 l30 -60 241 0 c132 0 239 3 237 8 -2 4 -17 33 -33 65 l-29 57 -238 0 c-131 0 -238 -2 -238 -5z"/>
 <path d="M1288 1473 c4 -10 19 -39 33 -65 l24 -48 237 0 c131 0 238 2 238 5 0 3 -14 32 -30 65 l-30 60 -240 0 c-226 0 -240 -1 -232 -17z"/>
 <path d="M1892 1425 l32 -65 824 0 823 0 -33 63 -33 62 -243 3 c-163 1 -241 -1 -237 -8 4 -7 -106 -10 -334 -10 -216 0 -342 4 -346 10 -4 6 -97 10 -245 10 l-240 0 32 -65z"/>
 <path d="M3610 1484 c0 -3 14 -32 32 -65 l32 -59 238 0 c131 0 238 3 238 6 0 3 -15 32 -32 65 l-33 59 -237 0 c-131 0 -238 -2 -238 -6z"/>
 <path d="M4494 1433 c-9 -32 -18 -61 -21 -65 -2 -5 135 -8 305 -8 l309 0 11 48 c6 26 14 55 17 65 7 16 -12 17 -299 17 l-305 0 -17 -57z"/>
 <path d="M5382 1428 l33 -63 243 -3 243 -2 -34 62 -35 63 -241 3 -242 2 33 -62z"/>
 <path d="M6241 1443 c-7 -27 -14 -56 -17 -65 -5 -17 14 -18 300 -18 l305 0 10 38 c5 20 13 49 17 65 l6 27 -305 0 -305 0 -11 -47z"/>
 <path d="M7712 1425 l32 -65 243 0 242 0 -34 63 -34 62 -240 3 -241 2 32 -65z"/>
 <path d="M8875 1428 l34 -63 241 -3 240 -2 -32 65 -32 65 -243 0 -243 0 35 -62z"/>
 <path d="M9430 1485 c0 -3 14 -32 30 -65 l30 -60 825 0 825 0 -34 63 -34 62 -821 3 c-452 1 -821 0 -821 -3z"/>
 <path d="M11202 1425 l32 -65 243 0 243 0 -35 63 -34 62 -241 3 -240 2 32 -65z"/>
 <path d="M12367 1425 l34 -65 240 0 c131 0 239 2 239 4 0 2 -15 30 -33 62 l-33 59 -241 3 -241 2 35 -65z"/>
 <path d="M14112 1428 l33 -63 242 -3 243 -2 -34 62 -34 63 -242 3 -241 2 33 -62z"/>
 <path d="M208 1313 c4 -10 20 -42 35 -70 l27 -53 240 0 240 0 -35 70 -35 70 -240 0 c-224 0 -239 -1 -232 -17z"/>
 <path d="M1398 1260 l37 -70 242 0 242 0 -35 61 c-18 33 -34 65 -34 70 0 5 -105 9 -245 9 l-244 0 37 -70z"/>
 <path d="M1950 1323 c0 -4 15 -35 33 -70 l32 -63 823 0 822 0 -35 70 -35 70 -820 0 c-451 0 -820 -3 -820 -7z"/>
 <path d="M3726 1260 l36 -70 239 0 c131 0 239 3 239 8 -1 4 -16 34 -35 67 l-34 60 -240 3 -240 2 35 -70z"/>
 <path d="M4447 1266 c-9 -35 -17 -67 -17 -70 0 -3 137 -6 303 -6 l304 0 16 60 c10 33 17 64 17 70 0 6 -105 10 -303 10 l-303 0 -17 -64z"/>
 <path d="M5440 1325 c0 -3 15 -35 33 -70 l32 -64 243 -1 242 0 -37 70 -38 70 -237 0 c-131 0 -238 -2 -238 -5z"/>
 <path d="M6195 1273 c-9 -32 -18 -64 -20 -71 -4 -10 58 -12 302 -10 l306 3 18 65 c10 36 18 66 19 68 0 1 -137 2 -305 2 l-304 0 -16 -57z"/>
 <path d="M7799 1260 l36 -70 242 0 242 0 -37 70 -37 70 -241 0 -241 0 36 -70z"/>
 <path d="M8930 1325 c0 -3 7 -17 16 -30 l16 -25 239 0 240 0 -16 30 -16 30 -239 0 c-132 0 -240 -2 -240 -5z"/>
 <path d="M9545 1260 l35 -70 240 0 c132 0 240 3 240 8 0 4 -9 22 -20 40 l-20 32 580 0 c319 0 580 2 580 5 0 2 -5 16 -12 30 l-11 25 -824 0 -823 0 35 -70z"/>
 <path d="M11260 1323 c0 -4 15 -35 33 -70 l32 -63 242 0 241 0 -36 70 -37 70 -237 0 c-131 0 -238 -3 -238 -7z"/>
 <path d="M12428 1313 c4 -10 20 -42 35 -70 l27 -53 240 0 240 0 -35 70 -35 70 -240 0 c-224 0 -239 -1 -232 -17z"/>
 <path d="M14170 1325 c0 -2 15 -34 33 -70 l32 -65 243 0 242 0 -37 70 -38 70 -237 0 c-131 0 -238 -2 -238 -5z"/>
 <path d="M322 1095 l32 -65 824 0 823 0 -33 63 -33 62 -822 3 -823 2 32 -65z"/>
 <path d="M2065 1098 l33 -63 821 -3 c452 -1 821 1 821 4 0 3 -14 33 -31 65 l-32 59 -823 0 -822 0 33 -62z"/>
 <path d="M3810 1100 c17 -34 36 -63 43 -66 7 -2 377 -3 824 -2 l812 3 -32 63 -31 62 -823 0 -823 0 30 -60z"/>
 <path d="M5530 1155 c0 -3 14 -32 30 -65 l30 -60 820 0 c451 0 820 2 820 5 0 3 -14 32 -30 65 l-30 60 -820 0 c-451 0 -820 -2 -820 -5z"/>
 <path d="M7860 1153 c1 -5 7 -19 15 -33 8 -14 14 -40 15 -57 l0 -33 273 0 272 0 -35 33 c-20 17 -42 47 -49 65 l-13 32 -239 0 c-132 0 -239 -3 -239 -7z"/>
 <path d="M9632 1095 l32 -65 243 0 243 0 -34 63 -34 62 -241 3 -241 2 32 -65z"/>
 <path d="M11377 1095 l34 -65 240 0 239 0 -32 65 -32 65 -242 0 -242 0 35 -65z"/>
 <path d="M12518 1143 c4 -10 19 -39 32 -65 l24 -48 238 0 c131 0 238 3 238 6 0 3 -14 33 -31 65 l-32 59 -238 0 c-223 0 -238 -1 -231 -17z"/>
 <path d="M14260 1155 c0 -4 8 -20 17 -38 9 -18 16 -44 15 -59 l-2 -28 272 0 272 0 -36 35 c-19 19 -41 48 -48 65 l-12 30 -239 0 c-132 0 -239 -2 -239 -5z"/>
 <path d="M400 955 c0 -2 10 -25 22 -50 l22 -45 823 0 823 0 -25 50 -25 50 -820 0 c-451 0 -820 -2 -820 -5z"/>
 <path d="M2165 910 l25 -50 240 0 240 0 -20 40 c-11 21 -20 42 -20 45 0 3 152 5 338 5 l337 0 25 -45 25 -45 237 0 c131 0 238 3 238 8 0 4 -11 25 -23 47 l-23 40 -822 3 -822 2 25 -50z"/>
 <path d="M3890 955 c0 -2 10 -25 22 -50 l22 -45 823 0 c453 0 823 2 823 4 0 2 -12 24 -26 50 l-26 46 -819 0 c-450 0 -819 -2 -819 -5z"/>
 <path d="M5656 910 l27 -50 819 0 c450 0 818 2 818 5 0 2 -10 25 -22 50 l-22 45 -824 0 -823 0 27 -50z"/>
 <path d="M7880 910 l0 -50 373 0 372 1 -54 49 -55 50 -318 0 -318 0 0 -50z"/>
 <path d="M9710 955 c0 -2 10 -25 22 -50 l22 -45 242 0 243 0 -27 50 -27 50 -237 0 c-131 0 -238 -2 -238 -5z"/>
 <path d="M11475 910 l25 -50 240 0 240 0 -25 50 -25 50 -240 0 -240 0 25 -50z"/>
 <path d="M12620 955 c0 -2 10 -25 22 -50 l22 -45 238 0 c131 0 238 2 238 5 0 2 -10 25 -22 50 l-22 45 -238 0 c-131 0 -238 -2 -238 -5z"/>
 <path d="M14280 910 l0 -50 376 0 376 0 -59 50 -58 50 -317 0 -318 0 0 -50z"/>
 <path d="M480 796 c0 -2 12 -24 26 -50 l26 -46 819 0 c450 0 819 2 819 5 0 2 -10 25 -22 50 l-22 45 -823 0 c-453 0 -823 -2 -823 -4z"/>
 <path d="M2230 793 c0 -5 10 -27 22 -50 l23 -43 237 0 c131 0 238 2 238 5 0 2 -10 25 -22 50 l-22 45 -238 0 c-131 0 -238 -3 -238 -7z"/>
 <path d="M3392 792 c2 -4 12 -26 23 -49 l20 -42 243 -1 242 0 -26 50 -26 50 -240 0 c-132 0 -238 -3 -236 -8z"/>
 <path d="M3995 750 l25 -50 820 0 c451 0 820 3 820 6 0 4 -10 26 -22 50 l-22 44 -823 0 -823 0 25 -50z"/>
 <path d="M5720 795 c0 -2 10 -25 22 -50 l22 -45 823 0 823 0 -25 50 -25 50 -820 0 c-451 0 -820 -2 -820 -5z"/>
 <path d="M7870 766 c0 -19 -3 -41 -6 -50 -6 -14 39 -16 465 -16 307 0 471 3 471 10 0 6 -3 10 -7 10 -5 0 -27 18 -51 40 l-43 40 -414 0 -415 0 0 -34z"/>
 <path d="M9790 796 c0 -2 12 -24 26 -50 l26 -46 239 0 c131 0 239 2 239 4 0 2 -12 24 -26 50 l-26 46 -239 0 c-131 0 -239 -2 -239 -4z"/>
 <path d="M11540 793 c0 -5 10 -27 22 -50 l23 -43 237 0 c131 0 238 2 238 5 0 2 -10 25 -22 50 l-22 45 -238 0 c-131 0 -238 -3 -238 -7z"/>
 <path d="M12700 796 c0 -2 12 -24 26 -50 l26 -46 239 0 c131 0 239 2 239 4 0 2 -12 24 -26 50 l-26 46 -239 0 c-131 0 -239 -2 -239 -4z"/>
 <path d="M14270 750 l0 -50 471 0 470 0 -53 50 -53 49 -417 1 -418 0 0 -50z"/>
 <path d="M582 603 c34 -79 13 -73 279 -73 l239 0 -25 50 -25 50 -240 0 -240 0 12 -27z"/>
 <path d="M1757 580 l28 -50 238 0 c130 0 237 3 237 8 0 4 -11 25 -23 47 l-23 40 -242 3 -243 2 28 -50z"/>
 <path d="M2339 580 l26 -50 238 0 c130 0 237 2 237 5 0 2 -10 25 -22 50 l-22 45 -242 0 -242 0 27 -50z"/>
 <path d="M3480 623 c0 -3 11 -26 25 -50 l26 -43 240 0 240 0 -27 50 -27 50 -239 0 c-131 0 -238 -3 -238 -7z"/>
 <path d="M4086 580 l26 -50 239 0 c131 0 239 2 239 4 0 2 -12 24 -26 50 l-26 46 -239 0 -239 0 26 -50z"/>
 <path d="M5230 623 c0 -5 10 -27 22 -50 l23 -43 241 0 242 0 -27 50 -26 50 -237 0 c-131 0 -238 -3 -238 -7z"/>
 <path d="M5810 625 c0 -2 10 -25 22 -50 l22 -45 242 0 242 0 -27 50 -26 50 -237 0 c-131 0 -238 -2 -238 -5z"/>
 <path d="M6977 613 c4 -10 15 -33 26 -50 l19 -33 239 0 239 0 -25 50 -25 50 -240 0 c-224 0 -239 -1 -233 -17z"/>
 <path d="M7860 618 c0 -7 -3 -30 -6 -50 l-7 -38 579 0 579 0 -55 50 -55 49 -517 1 c-408 0 -518 -3 -518 -12z"/>
 <path d="M9905 580 l25 -50 240 0 240 0 -12 28 c-34 78 -13 72 -279 72 l-239 0 25 -50z"/>
 <path d="M11648 580 l27 -50 238 0 c130 0 237 3 237 8 0 4 -11 25 -23 47 l-23 40 -241 3 -241 2 26 -50z"/>
 <path d="M12802 603 c34 -79 13 -73 279 -73 l239 0 -25 50 -25 50 -240 0 -240 0 12 -27z"/>
 <path d="M14260 618 c0 -7 -3 -30 -6 -50 l-7 -38 579 0 579 1 -55 49 -55 49 -517 1 c-408 0 -518 -3 -518 -12z"/>
 <path d="M680 425 c0 -2 10 -25 22 -50 l22 -45 242 0 242 0 -27 50 -26 50 -237 0 c-131 0 -238 -2 -238 -5z"/>
 <path d="M1847 413 c4 -10 15 -33 26 -50 l19 -33 239 0 239 0 -25 50 -25 50 -240 0 c-224 0 -239 -1 -233 -17z"/>
 <path d="M2432 403 c7 -16 19 -38 26 -50 l14 -23 819 0 c451 0 819 3 819 8 0 4 -11 25 -23 47 l-23 40 -822 3 -822 2 12 -27z"/>
 <path d="M4170 425 c0 -3 10 -25 23 -50 l22 -44 822 -1 c779 0 822 1 816 18 -4 9 -15 32 -26 50 l-19 32 -819 0 c-450 0 -819 -2 -819 -5z"/>
 <path d="M5935 380 l25 -50 820 0 c451 0 820 2 820 5 0 2 -10 25 -22 50 l-22 45 -823 0 -823 0 25 -50z"/>
 <path d="M7838 380 l-3 -50 303 0 302 0 0 34 c0 19 3 41 6 50 6 14 -25 16 -299 16 l-305 0 -4 -50z"/>
 <path d="M8570 380 l55 -50 303 0 303 0 -57 50 -57 50 -301 0 -301 -1 55 -49z"/>
 <path d="M9990 425 c0 -2 10 -25 22 -50 l22 -45 823 0 823 0 -25 50 -25 50 -820 0 c-451 0 -820 -2 -820 -5z"/>
 <path d="M11755 380 l25 -50 240 0 240 0 -25 50 -25 50 -240 0 -240 0 25 -50z"/>
 <path d="M12336 380 l26 -50 825 0 824 0 -28 50 -28 50 -823 0 -822 0 26 -50z"/>
 <path d="M14238 380 l-3 -50 303 0 302 0 0 34 c0 19 3 41 6 50 6 14 -25 16 -299 16 l-305 0 -4 -50z"/>
 <path d="M14965 385 c28 -25 59 -47 70 -50 11 -3 149 -4 307 -3 l286 3 -55 48 -54 47 -302 0 -302 -1 50 -44z"/>
 <path d="M785 220 l25 -50 240 0 240 0 -25 50 -25 50 -240 0 -240 0 25 -50z"/>
 <path d="M1948 220 l27 -50 238 0 c130 0 237 2 237 5 0 3 -10 25 -22 50 l-23 44 -242 1 -243 0 28 -50z"/>
 <path d="M2528 220 l27 -50 823 0 822 0 -26 50 -26 50 -824 0 -824 0 28 -50z"/>
 <path d="M4275 220 l25 -50 820 0 c451 0 820 2 820 5 0 2 -10 25 -22 50 l-22 45 -823 0 -823 0 25 -50z"/>
 <path d="M6019 220 l26 -50 823 0 822 0 -25 50 -25 50 -824 0 -824 0 27 -50z"/>
 <path d="M7830 243 c0 -16 -3 -38 -6 -50 l-6 -23 301 0 301 0 0 34 c0 19 3 41 6 50 6 14 -25 16 -295 16 l-301 0 0 -27z"/>
 <path d="M8759 220 l60 -50 298 0 298 0 -55 50 -55 49 -303 1 -303 0 60 -50z"/>
 <path d="M10095 220 l25 -50 820 0 c451 0 820 2 820 5 0 3 -10 25 -22 50 l-23 44 -823 1 -822 0 25 -50z"/>
 <path d="M11838 220 l27 -50 238 0 c130 0 237 2 237 5 0 2 -10 25 -22 50 l-22 45 -243 0 -243 0 28 -50z"/>
 <path d="M12400 263 c0 -5 11 -26 23 -48 l23 -40 822 -3 822 -2 -12 27 c-7 16 -19 38 -26 51 l-14 22 -819 0 c-451 0 -819 -3 -819 -7z"/>
 <path d="M14230 243 c0 -16 -3 -38 -6 -50 l-6 -23 301 0 c288 0 301 1 301 19 0 10 3 33 6 50 l7 31 -302 0 -301 0 0 -27z"/>
 <path d="M15160 220 l55 -49 300 0 300 -1 -55 50 -55 49 -300 0 -300 1 55 -50z"/>
 <path d="M875 50 l25 -50 240 0 240 0 -25 50 -25 50 -240 0 -240 0 25 -50z"/>
 <path d="M2037 50 l28 -50 238 0 c130 0 237 3 237 8 0 4 -11 25 -23 47 l-23 40 -242 3 -243 2 28 -50z"/>
 <path d="M2618 50 l27 -50 823 0 823 0 -27 50 -27 50 -823 0 -823 0 27 -50z"/>
 <path d="M4365 50 l25 -50 820 0 c451 0 820 2 820 5 0 2 -10 25 -22 50 l-22 45 -823 0 -823 0 25 -50z"/>
 <path d="M6090 95 c0 -2 10 -25 22 -50 l22 -45 823 0 c453 0 823 2 823 4 0 2 -12 24 -26 50 l-26 46 -819 0 c-450 0 -819 -2 -819 -5z"/>
 <path d="M7810 50 l0 -50 293 2 292 3 3 48 3 47 -295 0 -296 0 0 -50z"/>
 <path d="M8960 50 l55 -49 295 0 295 0 -55 49 -55 49 -295 1 -295 0 55 -50z"/>
 <path d="M10185 50 l25 -50 820 0 c451 0 820 2 820 5 0 2 -10 25 -22 50 l-22 45 -823 0 -823 0 25 -50z"/>
 <path d="M11910 94 c0 -4 10 -26 22 -50 l22 -44 238 0 c131 0 238 2 238 5 0 2 -10 25 -22 50 l-22 45 -238 0 c-131 0 -238 -3 -238 -6z"/>
 <path d="M12492 92 c2 -4 12 -26 22 -50 l20 -42 823 0 c453 0 823 2 823 4 0 2 -12 24 -26 50 l-26 46 -820 0 c-451 0 -818 -3 -816 -8z"/>
 <path d="M14216 69 c-15 -75 -39 -69 284 -69 224 0 292 3 294 13 3 6 7 29 10 50 l5 37 -293 0 -293 0 -7 -31z"/>
 <path d="M15330 79 c14 -12 40 -34 57 -50 l32 -29 293 0 293 1 -55 49 -55 50 -295 0 -295 -1 25 -20z"/>
 </g>

</svg>